<svg width="45" height="42" viewBox="0 0 45 42" fill="none" xmlns="http://www.w3.org/2000/svg">
<path d="M13.7 27.0105H26.9C27.5233 27.0105 28.0462 26.7993 28.4686 26.3769C28.8895 25.9559 29.1 25.4338 29.1 24.8105V20.4105L31.63 22.9405C31.96 23.2705 32.3545 23.3526 32.8136 23.1869C33.2712 23.0226 33.5 22.6838 33.5 22.1705V14.2505C33.5 13.7371 33.2712 13.3976 32.8136 13.2319C32.3545 13.0676 31.96 13.1505 31.63 13.4805L29.1 16.0105V11.6105C29.1 10.9871 28.8895 10.4643 28.4686 10.0419C28.0462 9.62094 27.5233 9.41047 26.9 9.41047H13.7C13.0767 9.41047 12.5538 9.62094 12.1314 10.0419C11.7105 10.4643 11.5 10.9871 11.5 11.6105V24.8105C11.5 25.4338 11.7105 25.9559 12.1314 26.3769C12.5538 26.7993 13.0767 27.0105 13.7 27.0105ZM0.5 39.2755V5.01047C0.5 3.80047 0.9312 2.76427 1.7936 1.90187C2.65453 1.04094 3.69 0.610474 4.9 0.610474H40.1C41.31 0.610474 42.3462 1.04094 43.2086 1.90187C44.0695 2.76427 44.5 3.80047 44.5 5.01047V31.4105C44.5 32.6205 44.0695 33.6567 43.2086 34.5191C42.3462 35.38 41.31 35.8105 40.1 35.8105H9.3L4.24 40.8705C3.54333 41.5671 2.74547 41.7226 1.8464 41.3369C0.9488 40.9526 0.5 40.2655 0.5 39.2755Z" fill="url(#paint0_linear_1_86)"/>
<defs>
<linearGradient id="paint0_linear_1_86" x1="22.5" y1="0.610474" x2="22.5" y2="41.5431" gradientUnits="userSpaceOnUse">
<stop stop-color="#00F0FF"/>
<stop offset="1" stop-color="#018A93"/>
</linearGradient>
</defs>
</svg>
