<svg width="160" height="97" viewBox="0 0 160 97" fill="none" xmlns="http://www.w3.org/2000/svg">
<path d="M48.84 82.7815C48.84 84.0535 48.628 85.2215 48.204 86.2855C47.78 87.3495 47.184 88.2655 46.416 89.0335C45.648 89.8015 44.724 90.3975 43.644 90.8215C42.564 91.2455 41.364 91.4575 40.044 91.4575H33.432V74.1055H40.044C41.364 74.1055 42.564 74.3215 43.644 74.7535C44.724 75.1775 45.648 75.7735 46.416 76.5415C47.184 77.3015 47.78 78.2135 48.204 79.2775C48.628 80.3415 48.84 81.5095 48.84 82.7815ZM45.528 82.7815C45.528 81.8295 45.4 80.9775 45.144 80.2255C44.896 79.4655 44.532 78.8255 44.052 78.3055C43.58 77.7775 43.004 77.3735 42.324 77.0935C41.652 76.8135 40.892 76.6735 40.044 76.6735H36.672V88.8895H40.044C40.892 88.8895 41.652 88.7495 42.324 88.4695C43.004 88.1895 43.58 87.7895 44.052 87.2695C44.532 86.7415 44.896 86.1015 45.144 85.3495C45.4 84.5895 45.528 83.7335 45.528 82.7815ZM54.0829 79.1455V91.4575H51.1069V79.1455H54.0829ZM54.4909 75.5575C54.4909 75.8135 54.4389 76.0535 54.3349 76.2775C54.2309 76.5015 54.0909 76.6975 53.9149 76.8655C53.7469 77.0335 53.5469 77.1695 53.3149 77.2735C53.0829 77.3695 52.8349 77.4175 52.5709 77.4175C52.3149 77.4175 52.0709 77.3695 51.8389 77.2735C51.6149 77.1695 51.4189 77.0335 51.2509 76.8655C51.0829 76.6975 50.9469 76.5015 50.8429 76.2775C50.7469 76.0535 50.6989 75.8135 50.6989 75.5575C50.6989 75.2935 50.7469 75.0455 50.8429 74.8135C50.9469 74.5815 51.0829 74.3815 51.2509 74.2135C51.4189 74.0455 51.6149 73.9135 51.8389 73.8175C52.0709 73.7135 52.3149 73.6615 52.5709 73.6615C52.8349 73.6615 53.0829 73.7135 53.3149 73.8175C53.5469 73.9135 53.7469 74.0455 53.9149 74.2135C54.0909 74.3815 54.2309 74.5815 54.3349 74.8135C54.4389 75.0455 54.4909 75.2935 54.4909 75.5575ZM61.6046 85.0015C61.9726 85.0015 62.2926 84.9535 62.5646 84.8575C62.8366 84.7535 63.0606 84.6135 63.2366 84.4375C63.4206 84.2615 63.5566 84.0495 63.6446 83.8015C63.7406 83.5535 63.7886 83.2815 63.7886 82.9855C63.7886 82.3775 63.6046 81.8975 63.2366 81.5455C62.8766 81.1855 62.3326 81.0055 61.6046 81.0055C60.8766 81.0055 60.3286 81.1855 59.9606 81.5455C59.6006 81.8975 59.4206 82.3775 59.4206 82.9855C59.4206 83.2735 59.4646 83.5415 59.5526 83.7895C59.6486 84.0375 59.7846 84.2535 59.9606 84.4375C60.1446 84.6135 60.3726 84.7535 60.6446 84.8575C60.9246 84.9535 61.2446 85.0015 61.6046 85.0015ZM64.9526 92.0095C64.9526 91.7695 64.8806 91.5735 64.7366 91.4215C64.5926 91.2695 64.3966 91.1535 64.1486 91.0735C63.9006 90.9855 63.6086 90.9215 63.2726 90.8815C62.9446 90.8415 62.5926 90.8135 62.2166 90.7975C61.8486 90.7735 61.4646 90.7535 61.0646 90.7375C60.6726 90.7215 60.2886 90.6895 59.9126 90.6415C59.5846 90.8255 59.3166 91.0415 59.1086 91.2895C58.9086 91.5375 58.8086 91.8255 58.8086 92.1535C58.8086 92.3695 58.8606 92.5695 58.9646 92.7535C59.0766 92.9455 59.2486 93.1095 59.4806 93.2455C59.7206 93.3815 60.0286 93.4855 60.4046 93.5575C60.7806 93.6375 61.2406 93.6775 61.7846 93.6775C62.3366 93.6775 62.8126 93.6335 63.2126 93.5455C63.6126 93.4655 63.9406 93.3495 64.1966 93.1975C64.4606 93.0535 64.6526 92.8775 64.7726 92.6695C64.8926 92.4695 64.9526 92.2495 64.9526 92.0095ZM67.9046 79.5655V80.6695C67.9046 81.0215 67.6926 81.2375 67.2686 81.3175L66.1646 81.5215C66.3326 81.9455 66.4166 82.4095 66.4166 82.9135C66.4166 83.5215 66.2926 84.0735 66.0446 84.5695C65.8046 85.0575 65.4686 85.4735 65.0366 85.8175C64.6046 86.1615 64.0926 86.4295 63.5006 86.6215C62.9166 86.8055 62.2846 86.8975 61.6046 86.8975C61.3646 86.8975 61.1326 86.8855 60.9086 86.8615C60.6846 86.8375 60.4646 86.8055 60.2486 86.7655C59.8646 86.9975 59.6726 87.2575 59.6726 87.5455C59.6726 87.7935 59.7846 87.9775 60.0086 88.0975C60.2406 88.2095 60.5446 88.2895 60.9206 88.3375C61.2966 88.3855 61.7246 88.4175 62.2046 88.4335C62.6846 88.4415 63.1766 88.4655 63.6806 88.5055C64.1846 88.5455 64.6766 88.6175 65.1566 88.7215C65.6366 88.8175 66.0646 88.9735 66.4406 89.1895C66.8166 89.4055 67.1166 89.7015 67.3406 90.0775C67.5726 90.4455 67.6886 90.9215 67.6886 91.5055C67.6886 92.0495 67.5526 92.5775 67.2806 93.0895C67.0166 93.6015 66.6286 94.0575 66.1166 94.4575C65.6126 94.8575 64.9886 95.1775 64.2446 95.4175C63.5086 95.6655 62.6686 95.7895 61.7246 95.7895C60.7966 95.7895 59.9886 95.6975 59.3006 95.5135C58.6126 95.3375 58.0406 95.0975 57.5846 94.7935C57.1286 94.4975 56.7886 94.1535 56.5646 93.7615C56.3406 93.3695 56.2286 92.9615 56.2286 92.5375C56.2286 91.9615 56.4006 91.4815 56.7446 91.0975C57.0966 90.7055 57.5766 90.3935 58.1846 90.1615C57.8566 89.9935 57.5966 89.7695 57.4046 89.4895C57.2126 89.2095 57.1166 88.8415 57.1166 88.3855C57.1166 88.2015 57.1486 88.0135 57.2126 87.8215C57.2846 87.6215 57.3846 87.4255 57.5126 87.2335C57.6486 87.0415 57.8166 86.8615 58.0166 86.6935C58.2166 86.5175 58.4526 86.3615 58.7246 86.2255C58.1006 85.8895 57.6086 85.4415 57.2486 84.8815C56.8966 84.3215 56.7206 83.6655 56.7206 82.9135C56.7206 82.3055 56.8406 81.7575 57.0806 81.2695C57.3286 80.7735 57.6686 80.3535 58.1006 80.0095C58.5406 79.6575 59.0566 79.3895 59.6486 79.2055C60.2486 79.0215 60.9006 78.9295 61.6046 78.9295C62.1326 78.9295 62.6286 78.9855 63.0926 79.0975C63.5566 79.2015 63.9806 79.3575 64.3646 79.5655H67.9046ZM72.8563 79.1455V91.4575H69.8803V79.1455H72.8563ZM73.2643 75.5575C73.2643 75.8135 73.2123 76.0535 73.1083 76.2775C73.0043 76.5015 72.8643 76.6975 72.6883 76.8655C72.5203 77.0335 72.3203 77.1695 72.0883 77.2735C71.8563 77.3695 71.6083 77.4175 71.3443 77.4175C71.0883 77.4175 70.8443 77.3695 70.6123 77.2735C70.3883 77.1695 70.1923 77.0335 70.0243 76.8655C69.8563 76.6975 69.7203 76.5015 69.6163 76.2775C69.5203 76.0535 69.4723 75.8135 69.4723 75.5575C69.4723 75.2935 69.5203 75.0455 69.6163 74.8135C69.7203 74.5815 69.8563 74.3815 70.0243 74.2135C70.1923 74.0455 70.3883 73.9135 70.6123 73.8175C70.8443 73.7135 71.0883 73.6615 71.3443 73.6615C71.6083 73.6615 71.8563 73.7135 72.0883 73.8175C72.3203 73.9135 72.5203 74.0455 72.6883 74.2135C72.8643 74.3815 73.0043 74.5815 73.1083 74.8135C73.2123 75.0455 73.2643 75.2935 73.2643 75.5575ZM79.9821 91.6495C78.9101 91.6495 78.0861 91.3495 77.5101 90.7495C76.9421 90.1415 76.6581 89.3055 76.6581 88.2415V81.3655H75.3981C75.2381 81.3655 75.1021 81.3135 74.9901 81.2095C74.8781 81.1055 74.8221 80.9495 74.8221 80.7415V79.5655L76.8021 79.2415L77.4261 75.8815C77.4661 75.7215 77.5421 75.5975 77.6541 75.5095C77.7661 75.4215 77.9101 75.3775 78.0861 75.3775H79.6221V79.2535H82.9101V81.3655H79.6221V88.0375C79.6221 88.4215 79.7141 88.7215 79.8981 88.9375C80.0901 89.1535 80.3501 89.2615 80.6781 89.2615C80.8621 89.2615 81.0141 89.2415 81.1341 89.2015C81.2621 89.1535 81.3701 89.1055 81.4581 89.0575C81.5541 89.0095 81.6381 88.9655 81.7101 88.9255C81.7821 88.8775 81.8541 88.8535 81.9261 88.8535C82.0141 88.8535 82.0861 88.8775 82.1421 88.9255C82.1981 88.9655 82.2581 89.0295 82.3221 89.1175L83.2101 90.5575C82.7781 90.9175 82.2821 91.1895 81.7221 91.3735C81.1621 91.5575 80.5821 91.6495 79.9821 91.6495ZM91.3118 86.2015C90.4558 86.2415 89.7358 86.3175 89.1518 86.4295C88.5678 86.5335 88.0998 86.6695 87.7478 86.8375C87.3958 87.0055 87.1438 87.2015 86.9918 87.4255C86.8398 87.6495 86.7638 87.8935 86.7638 88.1575C86.7638 88.6775 86.9158 89.0495 87.2198 89.2735C87.5318 89.4975 87.9358 89.6095 88.4318 89.6095C89.0398 89.6095 89.5638 89.5015 90.0038 89.2855C90.4518 89.0615 90.8878 88.7255 91.3118 88.2775V86.2015ZM84.5198 80.8615C85.9358 79.5655 87.6398 78.9175 89.6318 78.9175C90.3518 78.9175 90.9958 79.0375 91.5638 79.2775C92.1318 79.5095 92.6118 79.8375 93.0038 80.2615C93.3958 80.6775 93.6918 81.1775 93.8918 81.7615C94.0998 82.3455 94.2038 82.9855 94.2038 83.6815V91.4575H92.8598C92.5798 91.4575 92.3638 91.4175 92.2118 91.3375C92.0598 91.2495 91.9398 91.0775 91.8518 90.8215L91.5878 89.9335C91.2758 90.2135 90.9718 90.4615 90.6758 90.6775C90.3798 90.8855 90.0718 91.0615 89.7518 91.2055C89.4318 91.3495 89.0878 91.4575 88.7198 91.5295C88.3598 91.6095 87.9598 91.6495 87.5198 91.6495C86.9998 91.6495 86.5198 91.5815 86.0798 91.4455C85.6398 91.3015 85.2598 91.0895 84.9398 90.8095C84.6198 90.5295 84.3718 90.1815 84.1958 89.7655C84.0198 89.3495 83.9318 88.8655 83.9318 88.3135C83.9318 88.0015 83.9838 87.6935 84.0878 87.3895C84.1918 87.0775 84.3598 86.7815 84.5918 86.5015C84.8318 86.2215 85.1398 85.9575 85.5158 85.7095C85.8918 85.4615 86.3518 85.2455 86.8958 85.0615C87.4478 84.8775 88.0878 84.7295 88.8158 84.6175C89.5438 84.4975 90.3758 84.4255 91.3118 84.4015V83.6815C91.3118 82.8575 91.1358 82.2495 90.7838 81.8575C90.4318 81.4575 89.9238 81.2575 89.2598 81.2575C88.7798 81.2575 88.3798 81.3135 88.0598 81.4255C87.7478 81.5375 87.4718 81.6655 87.2318 81.8095C86.9918 81.9455 86.7718 82.0695 86.5718 82.1815C86.3798 82.2935 86.1638 82.3495 85.9238 82.3495C85.7158 82.3495 85.5398 82.2975 85.3958 82.1935C85.2518 82.0815 85.1358 81.9535 85.0478 81.8095L84.5198 80.8615ZM99.9953 73.6255V91.4575H97.0312V73.6255H99.9953ZM105.912 73.6255V83.8375H106.464C106.664 83.8375 106.82 83.8135 106.932 83.7655C107.052 83.7095 107.172 83.6015 107.292 83.4415L110.352 79.6615C110.48 79.4935 110.62 79.3655 110.772 79.2775C110.932 79.1895 111.136 79.1455 111.384 79.1455H114.096L110.268 83.7175C109.996 84.0775 109.7 84.3535 109.38 84.5455C109.548 84.6655 109.696 84.8055 109.824 84.9655C109.96 85.1255 110.088 85.2975 110.208 85.4815L114.312 91.4575H111.636C111.404 91.4575 111.204 91.4215 111.036 91.3495C110.868 91.2695 110.728 91.1295 110.616 90.9295L107.472 86.2615C107.36 86.0775 107.244 85.9575 107.124 85.9015C107.004 85.8455 106.824 85.8175 106.584 85.8175H105.912V91.4575H102.948V73.6255H105.912ZM126.377 79.1455V91.4575H124.565C124.173 91.4575 123.925 91.2775 123.821 90.9175L123.617 89.9335C123.113 90.4455 122.557 90.8615 121.949 91.1815C121.341 91.4935 120.625 91.6495 119.801 91.6495C119.129 91.6495 118.533 91.5375 118.013 91.3135C117.501 91.0815 117.069 90.7575 116.717 90.3415C116.365 89.9255 116.097 89.4335 115.913 88.8655C115.737 88.2895 115.649 87.6575 115.649 86.9695V79.1455H118.613V86.9695C118.613 87.7215 118.785 88.3055 119.129 88.7215C119.481 89.1295 120.005 89.3335 120.701 89.3335C121.213 89.3335 121.693 89.2215 122.141 88.9975C122.589 88.7655 123.013 88.4495 123.413 88.0495V79.1455H126.377Z" fill="white"/>
<path d="M98.9251 10.8643C97.5079 9.27666 95.7916 7.98409 93.8742 7.06061C91.9569 6.13713 89.8763 5.60088 87.7514 5.48255C85.6266 5.36423 83.4993 5.66616 81.4913 6.37105C79.4833 7.07594 77.634 8.16995 76.0494 9.59046L34.8641 48.6137L33.8504 49.2731C32.2655 50.693 30.4162 51.7866 28.4082 52.4911C26.4003 53.1957 24.2731 53.4974 22.1484 53.3791C20.0238 53.2608 17.9433 52.7247 16.026 51.8016C14.1087 50.8785 12.3922 49.5864 10.9747 47.9992L9.62908 46.4876C8.2094 44.9024 7.1162 43.0529 6.41201 41.0447C5.70783 39.0366 5.40649 36.9094 5.52522 34.7847C5.64395 32.66 6.18042 30.5796 7.10396 28.6625C8.0275 26.7453 9.31997 25.0291 10.9074 23.6119L26.4809 9.70708C28.0658 8.28685 29.9153 7.19316 31.9234 6.48864C33.9316 5.78412 36.059 5.4826 38.1838 5.60135C40.3087 5.72009 42.3893 6.25676 44.3064 7.18063C46.2236 8.10451 47.9397 9.39745 49.3565 10.9854" stroke="white" stroke-width="10.3165" stroke-miterlimit="10"/>
<path d="M60.5701 47.8826C61.9873 49.4701 63.7035 50.7625 65.6207 51.6861C67.5378 52.6096 69.6182 53.1461 71.7429 53.2648C73.8676 53.3835 75.9948 53.0822 78.0029 52.378C80.0111 51.6738 81.8606 50.5806 83.4458 49.1609L99.0193 35.2561" stroke="white" stroke-width="10.3165" stroke-miterlimit="10"/>
<path d="M110.645 47.9409C112.063 49.528 113.779 50.8201 115.697 51.7433C117.614 52.6664 119.694 53.2025 121.819 53.3208C123.944 53.4391 126.071 53.1373 128.079 52.4328C130.087 51.7282 131.936 50.6347 133.521 49.2147L149.095 35.3099C150.683 33.8917 151.977 32.1737 152.9 30.2545C153.824 28.3353 154.359 26.2527 154.476 24.1261C154.592 21.9995 154.288 19.8708 153.58 17.8621C152.872 15.8534 151.775 14.0043 150.35 12.4207L149.005 10.9091C147.588 9.32096 145.872 8.02792 143.954 7.10411C142.037 6.18029 139.956 5.64385 137.831 5.52552C135.706 5.40718 133.579 5.70928 131.571 6.41451C129.563 7.11973 127.714 8.21422 126.129 9.63528L97.5255 36.6421" stroke="white" stroke-width="10.3165" stroke-miterlimit="10"/>
</svg>
