<svg width="95" height="81" viewBox="0 0 95 81" fill="none" xmlns="http://www.w3.org/2000/svg">
<path d="M87.2727 0.45752H7.27273C5.34388 0.45752 3.49403 1.22375 2.13013 2.58765C0.766231 3.95155 0 5.8014 0 7.73025V73.1848C0 75.1136 0.766231 76.9635 2.13013 78.3274C3.49403 79.6913 5.34388 80.4575 7.27273 80.4575H13.3636C14.0522 80.4594 14.7268 80.2634 15.3071 79.8927C15.8873 79.5219 16.3487 78.9922 16.6364 78.3666C18.4156 74.643 21.2123 71.499 24.7033 69.2981C28.1942 67.0971 32.2368 65.9292 36.3636 65.9292C40.4905 65.9292 44.533 67.0971 48.024 69.2981C51.5149 71.499 54.3117 74.643 56.0909 78.3666C56.3785 78.9922 56.84 79.5219 57.4202 79.8927C58.0005 80.2634 58.6751 80.4594 59.3636 80.4575H87.2727C89.2016 80.4575 91.0514 79.6913 92.4153 78.3274C93.7792 76.9635 94.5454 75.1136 94.5454 73.1848V7.73025C94.5454 5.8014 93.7792 3.95155 92.4153 2.58765C91.0514 1.22375 89.2016 0.45752 87.2727 0.45752ZM36.3636 58.6393C33.4868 58.6393 30.6746 57.7863 28.2826 56.188C25.8906 54.5897 24.0263 52.318 22.9254 49.6602C21.8245 47.0023 21.5364 44.0777 22.0977 41.2562C22.6589 38.4347 24.0442 35.8429 26.0784 33.8087C28.1127 31.7745 30.7044 30.3891 33.526 29.8279C36.3475 29.2667 39.2721 29.5547 41.9299 30.6556C44.5878 31.7565 46.8595 33.6209 48.4577 36.0129C50.056 38.4048 50.9091 41.2171 50.9091 44.0939C50.8971 47.9479 49.3608 51.6406 46.6356 54.3658C43.9104 57.091 40.2176 58.6273 36.3636 58.6393ZM87.2727 73.1848H61.5454C59.97 70.4524 57.9586 67.9958 55.5909 65.9121H76.3636C77.328 65.9121 78.253 65.5289 78.9349 64.847C79.6169 64.165 80 63.2401 80 62.2757V18.6393C80 17.6749 79.6169 16.75 78.9349 16.068C78.253 15.3861 77.328 15.003 76.3636 15.003H18.1818C17.2174 15.003 16.2925 15.3861 15.6105 16.068C14.9286 16.75 14.5455 17.6749 14.5455 18.6393V62.2757C14.5501 63.0783 14.8201 63.8568 15.3134 64.4899C15.8067 65.123 16.4956 65.5751 17.2727 65.7757C14.8477 67.8925 12.7896 70.396 11.1818 73.1848H7.27273V7.73025H87.2727V73.1848Z" fill="url(#paint0_linear_1_62)"/>
<defs>
<linearGradient id="paint0_linear_1_62" x1="15.5" y1="0.457521" x2="47.2727" y2="80.4575" gradientUnits="userSpaceOnUse">
<stop stop-color="#DB00FF"/>
<stop offset="1" stop-color="#A313BA"/>
</linearGradient>
</defs>
</svg>
