<svg width="49" height="82" viewBox="0 0 49 82" fill="none" xmlns="http://www.w3.org/2000/svg">
<path d="M32.9829 48.4131L36.9738 48.832V81.3169L25.9502 69.5457V50.8187L29.1519 52.3822L32.9829 48.4131ZM15.4136 48.4131L11.4205 48.832V81.3169L22.4439 69.5457V50.8187L19.2424 52.3822L15.4136 48.4131ZM45.6444 28.0612L46.9359 32.5566L43.059 35.1704L42.7344 39.8411L38.1974 40.9705L36.2985 45.2445L31.6473 44.7532L28.3997 48.1083L24.1982 46.0557L19.9967 48.1083L16.7491 44.7421L12.098 45.2334L10.199 40.9596L5.66209 39.8411L5.33742 35.177L1.44949 32.5543L2.74113 28.059L0 24.272L2.74992 20.4892L1.44949 16.0027L5.32863 13.3889L5.6533 8.72451L10.199 7.60619L12.098 3.33242L16.7491 3.82355L19.9967 0.45752L24.1982 2.51012L28.3997 0.45752L31.6473 3.82355L36.2985 3.33242L38.1974 7.60619L42.7344 8.73559L43.059 13.3998L46.9359 16.0136L45.6444 20.5091L48.3965 24.272L45.6444 28.0612ZM36.9935 24.272C36.9935 21.7604 36.2487 19.3052 34.8534 17.2169C33.458 15.1286 31.4747 13.501 29.1543 12.5399C26.8339 11.5787 24.2806 11.3272 21.8173 11.8172C19.354 12.3072 17.0913 13.5167 15.3153 15.2926C13.5394 17.0686 12.3299 19.3313 11.8399 21.7946C11.35 24.2579 11.6014 26.8112 12.5626 29.1316C13.5237 31.452 15.1514 33.4353 17.2397 34.8307C19.328 36.226 21.7831 36.9708 24.2947 36.9708C27.661 36.9655 30.888 35.626 33.2683 33.2456C35.6487 30.8653 36.9883 27.6383 36.9935 24.272ZM24.2947 15.0816C22.4771 15.0816 20.7003 15.6206 19.1889 16.6305C17.6776 17.6403 16.4997 19.0756 15.8041 20.7549C15.1085 22.4341 14.9265 24.282 15.2811 26.0647C15.6357 27.8474 16.511 29.4849 17.7962 30.7702C19.0815 32.0555 20.719 32.9308 22.5017 33.2854C24.2844 33.64 26.1322 33.4581 27.8115 32.7625C29.4908 32.067 30.9262 30.8891 31.936 29.3778C32.9459 27.8665 33.4849 26.0897 33.4849 24.272C33.478 21.8374 32.5073 19.5045 30.7851 17.7836C29.0629 16.0626 26.7294 15.0936 24.2947 15.0883V15.0816Z" fill="url(#paint0_linear_1_60)"/>
<defs>
<linearGradient id="paint0_linear_1_60" x1="-10.5" y1="23.9575" x2="24.1982" y2="81.3169" gradientUnits="userSpaceOnUse">
<stop stop-color="#FF9900"/>
<stop offset="1" stop-color="#BD561C"/>
</linearGradient>
</defs>
</svg>
