<svg width="83" height="67" viewBox="0 0 83 67" fill="none" xmlns="http://www.w3.org/2000/svg">
<path d="M49.5602 64.9078C48.4944 63.7198 47.9828 62.2842 48.0254 60.6012C48.0716 58.9182 48.6276 57.4827 49.6934 56.2946L64.748 39.5138H5.32905C3.81915 39.5138 2.55262 38.9435 1.52944 37.803C0.509814 36.6665 0 35.2567 0 33.5737C0 31.8906 0.509814 30.4789 1.52944 29.3384C2.55262 28.2018 3.81915 27.6336 5.32905 27.6336H64.748L49.5602 10.7042C48.4944 9.5162 47.9615 8.10443 47.9615 6.46892C47.9615 4.83736 48.4944 3.42758 49.5602 2.23955C50.626 1.05153 51.8925 0.45752 53.3598 0.45752C54.8235 0.45752 56.0883 1.05153 57.1541 2.23955L81.5345 29.4156C82.0674 30.0096 82.4458 30.6531 82.6696 31.3461C82.8899 32.0391 83 32.7817 83 33.5737C83 34.3657 82.8899 35.1082 82.6696 35.8012C82.4458 36.4942 82.0674 37.1377 81.5345 37.7318L57.0209 65.0563C56.0439 66.1453 54.8235 66.6898 53.3598 66.6898C51.8925 66.6898 50.626 66.0958 49.5602 64.9078Z" fill="white"/>
</svg>
