<svg width="77" height="81" viewBox="0 0 77 81" fill="none" xmlns="http://www.w3.org/2000/svg">
<path d="M28.7645 24.4495L26.7826 19.3775L24.793 24.4495H28.7607H28.7645ZM10.5217 0.45752C7.7312 0.45752 5.05495 1.61645 3.08175 3.67935C1.10854 5.74225 0 8.54014 0 11.4575V61.4575C0 64.3749 1.10854 67.1728 3.08175 69.2357C5.05495 71.2986 7.7312 72.4575 10.5217 72.4575H34.519C31.9587 68.2793 30.6014 63.4196 30.6087 58.4575C30.6087 54.9135 31.2859 51.5375 32.5141 48.4575H10.5217C9.76068 48.4575 9.0308 48.1414 8.49265 47.5788C7.9545 47.0162 7.65217 46.2532 7.65217 45.4575C7.65217 44.6619 7.9545 43.8988 8.49265 43.3362C9.0308 42.7736 9.76068 42.4575 10.5217 42.4575H35.8734C38.1973 39.3403 41.1715 36.819 44.569 35.0859C47.9666 33.3529 51.6979 32.4539 55.4783 32.4575C60.2246 32.4499 64.873 33.8689 68.8696 36.5455V11.4575C68.8696 8.54014 67.761 5.74225 65.7878 3.67935C63.8146 1.61645 61.1384 0.45752 58.3478 0.45752H10.5217ZM23.913 62.4575H10.5217C9.76068 62.4575 9.0308 62.1415 8.49265 61.5788C7.9545 61.0162 7.65217 60.2532 7.65217 59.4575C7.65217 58.6619 7.9545 57.8988 8.49265 57.3362C9.0308 56.7736 9.76068 56.4575 10.5217 56.4575H23.913C24.6741 56.4575 25.404 56.7736 25.9421 57.3362C26.4803 57.8988 26.7826 58.6619 26.7826 59.4575C26.7826 60.2532 26.4803 61.0162 25.9421 61.5788C25.404 62.1415 24.6741 62.4575 23.913 62.4575ZM29.4379 10.3135L38.039 32.3215C38.3271 33.0583 38.3236 33.8846 38.029 34.6186C37.7345 35.3526 37.1731 35.9342 36.4683 36.2355C35.7636 36.5368 34.9733 36.5331 34.2711 36.2251C33.569 35.9172 33.0127 35.3303 32.7245 34.5935L31.1061 30.4495H22.4515L20.8292 34.5935C20.5313 35.3148 19.9746 35.8851 19.2788 36.1819C18.5829 36.4786 17.8035 36.4782 17.108 36.1806C16.4125 35.8831 15.8564 35.3122 15.5592 34.5905C15.262 33.8689 15.2474 33.0542 15.5186 32.3215L24.1273 10.3135C24.3432 9.76267 24.711 9.29143 25.1838 8.95976C25.6567 8.62809 26.2132 8.45098 26.7826 8.45098C27.352 8.45098 27.9086 8.62809 28.3814 8.95976C28.8542 9.29143 29.222 9.76267 29.4379 10.3135ZM51.6522 11.4455V16.4455H56.4348C57.1958 16.4455 57.9257 16.7616 58.4639 17.3242C59.002 17.8868 59.3043 18.6499 59.3043 19.4455C59.3043 20.2412 59.002 21.0042 58.4639 21.5668C57.9257 22.1294 57.1958 22.4455 56.4348 22.4455H51.6522V27.4455C51.6522 28.2412 51.3498 29.0042 50.8117 29.5668C50.2735 30.1294 49.5437 30.4455 48.7826 30.4455C48.0215 30.4455 47.2917 30.1294 46.7535 29.5668C46.2154 29.0042 45.913 28.2412 45.913 27.4455V22.4455H41.1304C40.3694 22.4455 39.6395 22.1294 39.1013 21.5668C38.5632 21.0042 38.2609 20.2412 38.2609 19.4455C38.2609 18.6499 38.5632 17.8868 39.1013 17.3242C39.6395 16.7616 40.3694 16.4455 41.1304 16.4455H45.913V11.4455C45.913 10.6499 46.2154 9.88681 46.7535 9.3242C47.2917 8.76159 48.0215 8.44552 48.7826 8.44552C49.5437 8.44552 50.2735 8.76159 50.8117 9.3242C51.3498 9.88681 51.6522 10.6499 51.6522 11.4455ZM76.5217 58.4575C76.5217 52.6228 74.3047 47.027 70.3582 42.9012C66.4118 38.7754 61.0593 36.4575 55.4783 36.4575C49.8972 36.4575 44.5447 38.7754 40.5983 42.9012C36.6519 47.027 34.4348 52.6228 34.4348 58.4575C34.4348 64.2923 36.6519 69.8881 40.5983 74.0139C44.5447 78.1397 49.8972 80.4575 55.4783 80.4575C61.0593 80.4575 66.4118 78.1397 70.3582 74.0139C74.3047 69.8881 76.5217 64.2923 76.5217 58.4575ZM57.3913 60.4575L57.3951 70.4695C57.3951 71 57.1936 71.5087 56.8348 71.8837C56.476 72.2588 55.9895 72.4695 55.4821 72.4695C54.9747 72.4695 54.4881 72.2588 54.1294 71.8837C53.7706 71.5087 53.569 71 53.569 70.4695V60.4575H43.9847C43.4773 60.4575 42.9907 60.2468 42.632 59.8717C42.2732 59.4967 42.0717 58.988 42.0717 58.4575C42.0717 57.9271 42.2732 57.4184 42.632 57.0433C42.9907 56.6682 43.4773 56.4575 43.9847 56.4575H53.5652V46.4575C53.5652 45.9271 53.7668 45.4184 54.1255 45.0433C54.4843 44.6682 54.9709 44.4575 55.4783 44.4575C55.9856 44.4575 56.4722 44.6682 56.831 45.0433C57.1898 45.4184 57.3913 45.9271 57.3913 46.4575V56.4575H66.968C67.4754 56.4575 67.962 56.6682 68.3207 57.0433C68.6795 57.4184 68.881 57.9271 68.881 58.4575C68.881 58.988 68.6795 59.4967 68.3207 59.8717C67.962 60.2468 67.4754 60.4575 66.968 60.4575H57.3951H57.3913Z" fill="url(#paint0_linear_1_64)"/>
<defs>
<linearGradient id="paint0_linear_1_64" x1="21.5" y1="0.45752" x2="38.2609" y2="80.4575" gradientUnits="userSpaceOnUse">
<stop stop-color="#EB147B"/>
<stop offset="1" stop-color="#A82051"/>
</linearGradient>
</defs>
</svg>
