<svg width="66" height="81" viewBox="0 0 66 81" fill="none" xmlns="http://www.w3.org/2000/svg">
<path d="M40 31.5686H60L40 7.12419V31.5686ZM7.27273 0.45752H43.6364L65.4545 27.1242V71.5686C65.4545 73.9261 64.6883 76.187 63.3244 77.854C61.9605 79.521 60.1107 80.4575 58.1818 80.4575H7.27273C5.34388 80.4575 3.49403 79.521 2.13013 77.854C0.766231 76.187 0 73.9261 0 71.5686V9.34641C0 4.41308 3.23636 0.45752 7.27273 0.45752ZM7.27273 40.4575V49.3464H58.1818V40.4575H7.27273ZM7.27273 58.2353V67.1242H40V58.2353H7.27273Z" fill="url(#paint0_linear_1_66)"/>
<defs>
<linearGradient id="paint0_linear_1_66" x1="32.7273" y1="0.45752" x2="32.7273" y2="80.4575" gradientUnits="userSpaceOnUse">
<stop stop-color="#3965FF"/>
<stop offset="1" stop-color="#0C37CF"/>
</linearGradient>
</defs>
</svg>
