<svg width="110" height="81" viewBox="0 0 110 81" fill="none" xmlns="http://www.w3.org/2000/svg">
<path d="M85 0.45752C76.45 0.45752 71.25 2.10752 68.25 3.50752C64.4 1.60752 60 0.45752 55 0.45752C50 0.45752 45.6 1.60752 41.75 3.50752C38.75 2.10752 33.55 0.45752 25 0.45752C10 0.45752 0 40.4575 0 50.4575C0 54.6075 6.6 58.4075 15.7 59.9575C18.9 71.1575 34 79.7075 52.5 80.4575V59.0575C49.55 57.2075 45 53.8575 45 50.4575C45 45.4575 55 45.4575 55 45.4575C55 45.4575 65 45.4575 65 50.4575C65 53.8575 60.45 57.2075 57.5 59.0575V80.4575C76 79.7075 91.1 71.1575 94.3 59.9575C103.4 58.4075 110 54.6075 110 50.4575C110 40.4575 100 0.45752 85 0.45752ZM15.75 49.8075C13.25 49.2075 11.3 48.5075 10 47.9575C11.25 34.1075 21 12.4575 25.25 10.4575C27.95 10.4575 30 10.7575 31.85 11.0075C21.35 22.5575 17.2 40.6575 15.75 49.8075ZM40 40.4575C38.6739 40.4575 37.4021 39.9307 36.4645 38.9931C35.5268 38.0554 35 36.7836 35 35.4575C35 32.7575 37.25 30.4575 40 30.4575C41.3261 30.4575 42.5979 30.9843 43.5355 31.922C44.4732 32.8597 45 34.1314 45 35.4575C45 38.2575 42.75 40.4575 40 40.4575ZM70 40.4575C68.6739 40.4575 67.4021 39.9307 66.4645 38.9931C65.5268 38.0554 65 36.7836 65 35.4575C65 32.7575 67.25 30.4575 70 30.4575C71.3261 30.4575 72.5979 30.9843 73.5355 31.922C74.4732 32.8597 75 34.1314 75 35.4575C75 38.2575 72.75 40.4575 70 40.4575ZM94.25 49.8075C92.8 40.6575 88.65 22.5575 78.15 11.0075C80 10.7575 82.05 10.4575 84.75 10.4575C89 12.4575 98.75 34.1075 100 47.9575C98.75 48.5075 96.8 49.2075 94.25 49.8075Z" fill="url(#paint0_linear_1_61)"/>
<defs>
<linearGradient id="paint0_linear_1_61" x1="55" y1="0.457521" x2="82.5" y2="80.4575" gradientUnits="userSpaceOnUse">
<stop stop-color="#018A93"/>
<stop offset="1" stop-color="#17787E"/>
</linearGradient>
</defs>
</svg>
